<svg width="187" height="185" viewBox="0 0 187 185" fill="none" xmlns="http://www.w3.org/2000/svg">
<g clip-path="url(#clip0_11305_12656)">
<path d="M186.25 67.1001C185.47 53.9601 175.5 42.4601 176.51 29.2101C176.55 28.7001 176.09 28.0601 175.57 27.9701C166.2 26.4001 159 22.2901 151.61 16.5101C146.64 12.6201 140.76 8.15006 134.21 11.2601C134.19 11.2701 134.18 11.2901 134.16 11.3001C130.93 8.23006 126.88 5.25006 122.58 3.97006C117.86 2.56006 112.67 3.09006 108.5 0.0800586C108.35 -0.0299414 108.07 -0.0299414 107.93 0.0800586C104.09 2.94006 100.02 4.64006 95.56 6.28006C95.4 6.34006 95.31 6.45006 95.26 6.57006C95.07 6.57006 94.89 6.57006 94.7 6.59006C91.98 6.80006 89.33 7.43006 86.67 7.99006C82.65 8.84006 79.25 9.12006 75.19 8.33006C73.51 8.00006 72.89 7.62006 71.4 8.58006C69.33 9.90006 67.87 11.5401 65.55 12.5901C63.21 13.6401 60.75 14.4001 58.36 15.3301C56 16.2501 53.69 17.2801 51.73 18.7901C51.71 18.8001 51.68 18.8101 51.66 18.8201C48.78 21.0801 46.61 23.9301 45.35 27.3901C45.13 27.9901 44.98 28.6001 44.81 29.2001C41.65 29.8001 39.31 31.9301 37.22 34.3101C33.86 38.1501 30.18 41.5401 25.75 44.1401C18.15 48.6001 8.54004 50.9301 2.98004 58.2101C-2.48996 65.3801 0.720038 72.4701 3.16004 80.2101C3.79004 82.2101 4.11004 83.8701 6.49004 83.0101C8.81004 82.1701 9.36004 80.5501 12.08 82.2201C13.87 83.3201 14.69 85.5301 15.14 87.4601C15.93 90.7901 15.56 96.0301 11.02 95.7401C10.3 95.6901 9.88004 96.4401 10.01 97.0601C11.22 102.72 14.74 107.62 20.41 108.9C18.74 111.45 18.11 114.5 18.85 117.63C20.2 123.31 24.61 128.77 22.29 134.77C21.98 135.57 22.98 136.08 23.61 135.78C25.44 134.9 27.27 134.33 29.09 134C32.72 135.94 36.2 138.11 38.31 141.85C40.49 145.72 37.64 149.51 39.03 153.57C41.2 159.86 47.24 165.4 52.87 168.59C56.54 170.67 60.39 171.74 64.34 172.16C66.62 174.37 71.37 175.07 74.27 175.98C78.99 177.47 86.78 178.08 88.05 183.73C88.18 184.32 89.21 184.21 89.13 183.58C89.13 183.56 89.13 183.55 89.13 183.53C89.14 183.51 89.16 183.49 89.17 183.46C89.36 182.9 89.55 182.33 89.74 181.76C90.79 179.88 92.35 177.98 94.42 177.43C96.31 176.92 98.55 177.61 100.44 177.8C104.01 178.16 107.22 177.36 110.53 176.04C113.97 174.67 117.27 172.92 120.92 172.15C124.66 171.37 134.21 170.3 135.74 175.14C135.97 175.87 136.84 176.08 137.4 175.58C142.04 171.4 147.41 170.82 153.36 170.07C157.04 169.61 160.94 168.94 163.96 166.62C166.79 164.44 168.88 161.09 170.21 157.83C171.32 155.1 171.56 152.34 171.92 149.56C171.98 149.5 172.04 149.43 172.06 149.33C172.85 145.69 173.36 142.48 175.26 139.18C175.5 138.76 175.4 138.03 174.9 137.82C172.37 136.74 170.52 134.73 169.93 131.99C169.24 128.79 171.13 126.27 173.13 124.03C175.56 121.3 177.56 118.5 178.68 114.97C180.75 108.46 180.07 100.95 175.74 95.5701C183.05 88.1001 186.86 77.5401 186.24 67.1201L186.25 67.1001ZM107.99 1.44006C108.63 1.33006 109.28 1.96006 109.85 2.24006C111.25 2.92006 112.76 3.33006 114.28 3.63006C117.51 4.25006 120.86 4.40006 124.02 5.36006C127.96 6.55006 130.85 9.30006 133.86 11.9601C133.97 12.0601 134.11 12.0701 134.22 12.0201C134.31 12.0801 134.42 12.1001 134.54 12.0701C145.4 8.84006 151.68 19.6401 159.61 24.7201C163.19 27.0101 167.11 28.7101 171.23 29.7501C174.64 30.6101 174.69 31.0501 175.48 34.5801C176.01 36.9501 176.44 39.2901 177.15 41.6201C180.02 51.0301 184.78 59.2001 184.29 69.3501C183.84 78.7001 180.08 87.4301 174.04 94.5201C173.86 94.7301 173.79 94.9501 173.79 95.1701C173.76 95.2001 173.74 95.2401 173.73 95.2901C173.02 97.7501 172.46 100.2 171.01 102.36C169.5 104.62 167.49 106.42 165.1 107.73C164.34 108.15 163.39 108.53 162.36 108.92C164.6 107.34 166.63 105.46 168.09 103.54C171.57 98.9301 172.25 93.0501 172.88 87.4801C172.89 87.3801 172.71 87.3501 172.7 87.4601C171.85 92.8101 170.88 98.3901 167.46 102.77C165.83 104.86 163.82 106.56 161.61 108.01C160.92 108.47 160.19 108.88 159.46 109.28C161.81 107.32 163.93 105.03 165.42 102.46C167.94 98.1601 169.73 92.8201 170.52 87.9201C170.55 87.7401 170.28 87.6601 170.24 87.8401C169.74 90.2301 168.93 92.4701 168.03 94.7401C167.09 97.1201 166.18 99.5701 164.88 101.78C163.65 103.86 162.07 105.56 160.36 107.13C162.11 104.95 163.52 102.36 164.65 100.02C166.45 96.2701 167.49 92.3201 168.01 88.2001C168.03 88.0701 167.8 88.0401 167.78 88.1701C167.06 92.2301 165.69 96.2101 163.81 99.8801C163.13 101.22 162.37 102.52 161.55 103.78C162.17 102.53 162.67 101.24 163.03 99.9101C163.69 98.3701 164.21 96.7401 164.66 95.2501C165.44 92.6701 165.82 90.0901 165.67 87.4001C165.67 87.2301 165.4 87.2201 165.4 87.4001C165.34 90.1301 164.74 92.7901 163.86 95.3701C163.82 95.4901 163.77 95.6001 163.73 95.7101C163.85 93.7801 163.73 91.8101 163.34 89.8501C163.07 88.5101 162.68 87.2101 162.15 85.9501C161.59 84.6101 160.14 83.0401 160.06 81.6701C160 80.5501 161.18 78.7301 161.46 77.5801C161.85 75.9501 162.02 74.1701 162.08 72.5101C162.29 65.7101 159.36 59.3201 154.9 54.3201C154.81 54.2101 154.68 54.1901 154.56 54.2101C153.9 49.9701 152.85 45.6901 155.12 41.7501C155.32 41.3901 155.29 40.8601 154.97 40.5801C149.8 35.9501 146.09 30.1501 142.03 24.6301C144.34 25.2901 146.41 26.7701 148.22 28.2901C148.3 28.3601 148.43 28.2401 148.34 28.1701C147.09 27.0101 145.85 25.8201 144.38 24.9301C144.11 24.7701 142.47 24.1301 141.36 23.7401C141.04 23.3101 140.72 22.8901 140.39 22.4701C141.85 22.8201 143.27 23.1001 144.68 23.8301C146.72 24.8901 148.44 26.3701 149.8 28.2201C149.89 28.3401 150.09 28.2201 150.01 28.1001C147.83 24.8501 143.76 21.4701 139.58 21.4401C139.33 21.1301 139.08 20.8201 138.83 20.5101C141.08 21.0301 143.27 21.3701 145.43 22.4901C147.86 23.7501 149.92 25.5501 151.26 27.9501C151.33 28.0701 151.5 27.9601 151.44 27.8401C148.92 23.1801 143.36 19.3601 137.89 19.4101C137.65 19.1301 137.42 18.8501 137.17 18.5801C138.39 18.7301 139.64 18.7001 140.85 18.9501C142.52 19.3001 144.16 19.8601 145.68 20.6201C148.77 22.1601 151.46 24.5001 153.32 27.4101C153.39 27.5101 153.55 27.4201 153.49 27.3101C151.67 24.2401 149.2 21.6901 146.06 19.9701C143.44 18.5301 139.42 16.9401 136.37 17.7201C135.87 17.1901 135.36 16.6701 134.83 16.1601C139.64 15.4801 144.29 16.9801 148.37 19.6101C152.89 22.5301 155.97 26.5801 159.11 30.8601C159.17 30.9501 159.32 30.8601 159.26 30.7701C153.82 22.2301 145.03 12.8801 133.88 15.2501C133.39 14.8101 132.9 14.3701 132.38 13.9501C128.61 10.8701 124.3 8.14006 119.69 6.53006C117.44 5.74006 115.05 5.25006 112.66 5.29006C109.88 5.33006 107.44 6.50006 104.72 6.79006C102.49 7.03006 100.25 6.74006 98.01 6.61006C100.67 5.76006 103.26 4.43006 105.59 3.01006C106.21 2.63006 107.31 1.56006 107.99 1.44006ZM152.05 124.81C152.31 132.03 150.45 138.26 146.21 144.09C145.06 142.76 143.29 142.1 141.55 141.74C137.91 140.99 134.04 141.12 130.35 140.79C125.13 140.31 119.94 139.65 114.77 138.78C104 136.98 93.52 134.33 83.26 130.94C83.5 130.94 83.75 130.94 83.99 130.94C87.25 130.94 90.48 131.14 93.65 131.91C93.87 131.96 93.96 131.62 93.74 131.57C91.1 131.02 88.43 130.47 85.73 130.28C84.02 130.16 82.34 130.14 80.66 130.06C80.02 129.84 79.38 129.62 78.74 129.39C79.92 129.46 81.11 129.46 82.31 129.41C86.36 129.24 90.51 129.37 94.5 130.13C94.69 130.17 94.77 129.87 94.58 129.84C91.09 129.19 87.62 128.65 84.06 128.62C82.21 128.6 80.35 128.79 78.5 128.64C77.27 128.54 76.13 128.22 74.98 127.88C77.02 128.02 79.09 127.88 81.08 127.75C85.69 127.44 90.29 127.43 94.86 128.19C95.08 128.23 95.18 127.88 94.95 127.85C90.9 127.2 86.86 126.82 82.76 126.96C81.09 127.01 79.47 127.08 77.86 127.08C83.68 126.47 89.6 124.24 95.4 125.44C95.63 125.49 95.73 125.14 95.5 125.09C89.35 123.73 83.27 125.71 77.16 126.17C77.62 126.11 78.08 126.06 78.53 125.98C84.14 125.06 89.54 122.1 95.34 123.18C95.54 123.22 95.62 122.92 95.42 122.88C90.76 121.93 86.26 123.5 81.76 124.54C76.66 125.72 71.4 126.08 66.37 124.64C66.07 124.51 65.76 124.39 65.46 124.26C73.34 125.06 81.39 123.79 88.72 120.78C90.79 119.93 93.6 117.59 95.56 118.57C97.42 119.5 99.07 121.47 100.93 122.56C104.8 124.83 109.21 126.31 113.67 126.75C119.02 127.28 123.67 125.58 128.58 123.69C134.48 121.43 141.82 119.01 147.29 123.6C147.77 124 148.8 123.97 148.9 123.17C149.32 120.02 150.8 117.44 152.65 115.07C151.78 118.18 151.89 121.64 152 124.81H152.05ZM45.41 105.08C48.14 105.93 50.38 108.27 52.57 109.94C54.54 111.45 56.57 112.87 58.73 114.11C62.69 116.39 67.04 118.12 71.63 118.52C82.41 119.44 92.41 113.07 102.41 109.98C112.6 108.07 123.34 105.18 132.56 100.55C133.94 99.8601 135.01 99.1801 136.02 98.1101C142.12 94.2701 147.08 88.9501 149.8 80.9401C149.88 80.7201 149.52 80.5601 149.42 80.7801C146.75 86.4701 143.15 91.2501 138.63 95.0701C138.68 94.9601 138.73 94.8601 138.77 94.7501C142.96 91.1301 146.24 86.4401 147.69 81.1001C147.72 81.0001 147.56 80.9601 147.53 81.0601C146.19 85.6801 142.94 89.0601 139.74 92.4301C139.91 92.0201 140.08 91.6101 140.24 91.2101C141.35 90.0401 142.38 88.6601 143.3 87.4301C144.77 85.4801 145.84 83.4701 146.53 81.1301C146.57 81.0001 146.38 80.9601 146.33 81.0801C145.3 83.7301 143.61 86.0701 141.76 88.2001C141.59 88.4001 141.4 88.6001 141.22 88.7901C142.16 86.4901 143.14 84.2001 144.28 81.9701C146.63 77.3801 149.59 73.2001 152.09 68.7101C154.15 65.0201 155.18 61.2601 154.88 57.0101C154.84 56.5001 154.79 55.9801 154.72 55.4701C160.42 63.4101 162.63 72.2201 157.57 81.2001C157.32 81.6401 157.43 82.1201 157.74 82.4901C163.88 89.8201 163.06 99.9501 157.16 107.1C153.47 111.57 148.71 115.5 147.34 121.29C140.33 117.06 132.29 120.91 125.17 123.3C114.46 126.89 103.64 123.78 95.53 116.11C95.26 115.86 94.82 115.77 94.5 115.98C85.22 121.74 74.01 124 63.21 122.19C57.76 121.28 52.56 119.49 49.73 114.4C48.03 111.34 47.24 108.01 45.41 105.08ZM55 70.9001C55.36 67.3701 55 64.5701 53.96 61.1401C53.26 58.8101 52.56 56.5301 52.76 54.0701C52.87 52.7801 53.18 51.4801 53.92 50.3801C55.19 48.5101 56.2 48.6601 58.26 47.9301C60.92 46.9901 61.1 44.5901 63.08 42.5601C67.19 38.3301 73.3 37.9301 76.91 42.9801C76.98 43.0701 77.06 43.1201 77.15 43.1601C77.14 43.1801 77.12 43.2001 77.11 43.2301C76.45 42.3101 74.45 41.7201 73.59 41.5001C71.62 40.9801 69.46 41.0701 67.56 41.8201C63.86 43.2801 61.61 47.1101 60.67 50.8101C60.64 50.9301 60.81 50.9701 60.85 50.8601C62.03 47.8101 63.62 44.7701 66.59 43.1201C68.1 42.2801 69.81 41.9101 71.53 42.0101C72.43 42.0701 73.33 42.2501 74.17 42.5601C74.67 42.7401 75.14 42.9701 75.59 43.2401C75.61 43.2601 75.63 43.2701 75.64 43.2801C75.61 43.2801 75.59 43.2701 75.56 43.2701C73.39 41.8001 69.73 42.3901 67.51 43.3501C64.93 44.4701 63.2 46.9201 62.85 49.6801C62.84 49.7701 62.99 49.7901 63 49.7001C63.88 45.7201 67.51 43.2101 71.34 43.0601C70.55 43.1501 69.78 43.3401 69.04 43.6501C66.51 44.6801 64.71 46.8301 63.89 49.4001C63.83 49.5901 64.12 49.6601 64.18 49.4801C65.2 46.6501 67.4 44.5001 70.38 43.8601C71.96 43.5201 73.26 43.7701 74.79 44.0901C74.93 44.1201 75.17 44.1201 75.41 44.1101C75.33 44.1401 75.25 44.1701 75.18 44.1901C71.34 43.3001 67.53 45.1801 65.79 48.7201C65.74 48.8201 65.89 48.9101 65.94 48.8101C66.72 47.3901 67.92 46.2901 69.32 45.5701C67.79 48.7701 67.63 52.1801 68.09 55.6801C68.77 60.8101 72.2 66.3201 69.54 71.3501C69.36 71.6901 69.47 72.0801 69.79 72.2901C71.33 73.3201 72.01 74.9701 72.49 76.7801C72.68 77.8401 72.77 78.8801 72.76 79.9201C72.41 79.7801 72.06 79.6301 71.75 79.4201C71 78.9301 70.36 78.3101 69.77 77.6401C69.67 77.5301 69.47 77.6801 69.56 77.8001C70.07 78.5401 70.71 79.1701 71.45 79.6901C71.81 79.9401 72.27 80.2601 72.75 80.4901C72.73 80.8501 72.7 81.2201 72.66 81.5801C71.99 81.2501 71.35 80.9101 70.74 80.4501C69.87 79.7901 69.13 79.0101 68.43 78.1701C68.35 78.0701 68.18 78.2001 68.25 78.3101C69.25 79.8401 70.86 81.2601 72.61 82.0001C72.55 82.3901 72.49 82.7901 72.4 83.1801C71.44 82.6001 70.52 82.0101 69.68 81.2301C68.68 80.3001 67.87 79.2101 67.06 78.1101C66.96 77.9701 66.73 78.0901 66.82 78.2501C68.06 80.3801 70.11 82.4001 72.28 83.6801C72.19 84.0401 72.09 84.4001 71.97 84.7601C69.4 83.0601 67.24 80.7501 65.71 78.0801C65.64 77.9501 65.44 78.0701 65.51 78.2001C67.07 81.0501 69.18 83.3601 71.83 85.1901C71.7 85.5501 71.56 85.9101 71.41 86.2601C68.44 83.5701 65.87 81.0901 64.25 77.2701C64.21 77.1701 64.05 77.2401 64.07 77.3401C65.03 81.1101 68.02 84.5601 71.15 86.8201C71.02 87.0901 70.89 87.3601 70.75 87.6301C69.2 86.2401 67.59 85.0301 66.26 83.3301C64.65 81.2601 63.37 78.9101 62.55 76.4201C62.5 76.2601 62.26 76.3301 62.3 76.4901C63.01 79.1101 64.07 81.5201 65.68 83.7201C66.35 84.6301 67.13 85.6201 68.01 86.5001C63.51 82.6701 60.31 77.5001 59.43 70.9901C59.39 70.6901 58.87 70.7601 58.9 71.0601C59.75 80.0901 64.95 86.6901 72.79 90.9601C77.12 93.3201 81.06 94.9701 86 94.9701C91.36 94.9701 96.88 95.4101 102.14 94.0601C107.03 92.8001 110.9 89.5801 115.35 87.3401C119.64 85.1801 124.77 85.1301 128.61 82.1401C132.81 78.8701 136.15 74.0901 139.62 70.0801C141.14 68.3201 142.87 66.4201 143.07 64.2401C143.17 64.4801 143.25 64.7301 143.31 64.9801C143.98 67.6901 142.48 70.1701 140.98 72.2201C139.52 74.2201 137.69 75.9101 136.18 77.8801C134.9 79.5501 133.63 83.1401 131.64 84.0001C129.68 84.8501 127.06 84.7801 124.97 85.5601C118.84 87.8501 115.62 93.2501 109.96 96.0401C101.72 98.4601 91.67 96.4401 85.17 102.43C79.83 98.6101 73.12 97.7201 67.73 94.0901C64.36 91.8201 63.26 87.2001 60.97 83.9001C59.83 82.2601 58.67 80.6201 57.52 78.9801C55.42 75.9701 54.56 74.9501 54.98 70.8801L55 70.9001ZM137.52 62.9301C137.6 62.3001 137.64 61.6801 137.68 61.0501C139.36 60.6901 140.88 61.3201 141.95 62.4501C142.75 66.8801 136.61 71.8201 134.02 74.7901C133.84 75.0001 133.66 75.2101 133.48 75.4201C135.57 71.5401 136.99 67.2801 137.52 62.9401V62.9301ZM130.63 78.6901C128.75 80.7201 126.67 82.5201 124 83.3901C123.72 83.4801 123.44 83.5701 123.17 83.6501C124.82 82.6301 126.26 81.4001 127.17 79.9301C128.64 77.5701 128.94 74.2701 129.35 71.6101C129.79 68.7401 130.29 65.8601 130.61 62.9701C130.63 62.7701 130.29 62.7201 130.25 62.9201C129.43 67.1701 128.59 71.5301 127.08 75.6301C127.03 75.0001 126.93 74.3801 126.81 73.7501C129.43 68.1001 129.96 60.8701 129.2 54.7901C129.18 54.6301 128.94 54.6201 128.94 54.7901C129.11 58.1901 129.08 61.4401 128.52 64.8101C128.08 67.4601 127.29 69.9801 126.54 72.5401C126.47 72.2401 126.39 71.9301 126.31 71.6301C127.41 69.2001 127.85 66.2901 128.11 63.6801C128.41 60.6901 128.46 57.3501 127.86 54.3901C127.84 54.2701 127.65 54.3001 127.65 54.4201C127.73 57.3201 127.91 60.0901 127.57 63.0001C127.27 65.5801 126.55 68.0101 126 70.5101C125.89 70.1301 125.79 69.7601 125.68 69.3901C127.16 64.7801 127.22 59.0001 126.48 54.2801C126.46 54.1801 126.31 54.2101 126.31 54.3001C126.33 56.8501 126.42 59.3901 126.2 61.9401C126.03 64.0001 125.62 66.0101 125.31 68.0401C125.09 67.1701 124.88 66.3001 124.69 65.4301C125.43 61.7801 125.49 57.9901 125.03 54.3001C125.01 54.1501 124.78 54.1401 124.79 54.3001C124.95 57.4401 124.75 60.4901 124.31 63.5601C123.46 59.0101 123.25 54.4401 124.92 49.9401C124.99 49.7401 124.9 49.5101 124.77 49.3701C123.3 47.8001 121.85 46.2101 120.36 44.6601C119.83 44.1001 119.16 43.0601 118.28 42.9501C117.82 42.8901 117.46 43.1401 117.05 43.2301C116.23 43.4101 115.5 43.6701 114.82 43.9401C114.81 43.9201 114.8 43.8901 114.79 43.8601C110.27 37.9401 102.94 35.4701 95.64 36.2501C89.61 36.8901 84.48 40.1801 79.11 42.6201C84.59 36.8301 90.3 32.3401 98.67 30.9901C103.65 30.1901 108.84 30.6401 113.64 32.1601C118.12 33.5701 121.71 36.3401 125.81 38.5001C127.2 39.2301 128.67 39.8901 130.21 40.2401C132.13 40.6801 132.68 40.2401 132.94 42.3901C133.42 46.4901 134.62 50.1901 135.56 54.2001C137.63 62.9901 135.06 71.2301 130.63 78.6801V78.6901ZM71.87 72.5801C71.05 70.6001 72.05 68.8801 71.92 66.6301C71.75 63.6101 70.48 60.8201 69.83 57.9001C68.91 53.7901 69.03 50.0001 70.15 45.9601C77.61 46.0401 83.34 40.8801 90.21 38.6601C98.61 35.9501 107.9 37.3101 113.64 44.3801C112.06 44.9401 110.55 45.2101 108.36 43.9901C108.27 43.9401 108.18 43.9601 108.11 44.0101C108.05 43.9601 107.99 43.9101 107.94 43.8601C104.72 40.7901 101.77 38.2901 97.08 39.9801C90.87 42.2201 87.66 48.8701 80.99 50.5301C80.67 50.6101 80.32 50.9901 80.36 51.3501C81.18 57.8101 77.26 63.8401 76.35 70.0201C76.07 66.6701 76.3 63.1601 76.63 59.6501C76.68 59.0601 75.69 58.9201 75.59 59.5101C73.98 68.6101 74.66 78.1501 82.01 84.6101C86.58 88.6301 93.05 91.0301 99.46 91.5301C95.8 91.5601 92.13 90.9001 88.44 89.7601C85.19 88.7501 81.72 87.6301 78.76 85.9401C75.91 84.3101 74.5 82.1701 73.76 79.2501C73.62 78.0301 73.36 76.8201 72.96 75.6501C72.67 74.6201 72.32 73.6401 71.88 72.5801H71.87ZM69.91 45.3001C71.07 44.8101 72.34 44.5801 73.61 44.6501C72.41 44.9701 71.18 45.2001 69.91 45.3001ZM85.69 56.9301C85.69 56.9301 85.65 56.9601 85.65 56.9901C85.24 58.6201 85.03 60.5101 85.76 62.0501C84.1 61.2801 84.07 59.3601 85.65 56.3201C85.65 56.5201 85.67 56.7301 85.69 56.9301ZM86.54 62.3101C85.7 60.8601 85.74 59.3401 85.84 57.7201C85.91 58.0201 86 58.3201 86.1 58.6101C86.1 60.0101 86.41 61.3401 87.09 62.5101C86.9 62.4501 86.72 62.3901 86.54 62.3101ZM87.88 62.7001C87.88 62.7001 87.82 62.6801 87.78 62.6801C87.18 61.7001 86.71 60.6501 86.47 59.5201C87.09 60.8101 88 61.9901 89.03 63.0001C88.65 62.9001 88.26 62.8001 87.88 62.6901V62.7001ZM90.05 63.3301C87.9 60.7601 85.87 58.5001 86.6 54.7601C86.94 53.0101 88.75 49.3901 90.59 49.3801C91.77 49.3701 92.87 49.7401 94.13 49.6401C97.23 49.4101 100.17 48.4401 102.8 50.6101C98.72 52.3801 93.56 53.2801 91.19 56.8701C90.7 57.6001 90.47 58.3301 90.42 59.0401C90.09 57.8601 90.01 56.6101 90.37 55.2001C90.41 55.0601 90.21 55.0101 90.16 55.1401C89.41 57.0901 89.67 59.1201 90.43 60.9901C89.31 59.2801 88.63 57.3901 89.07 55.0501C89.09 54.9301 88.92 54.8801 88.89 55.0001C87.96 58.4101 89.54 61.6701 91.89 64.1201C91.29 63.8301 90.68 63.5601 90.06 63.3301H90.05ZM115.32 65.3001C115.14 65.5001 114.95 65.6901 114.76 65.8701C115.26 63.5601 113.67 60.4901 112.44 58.9101C112.36 58.8101 112.22 58.9501 112.3 59.0501C114.03 61.2201 114.83 64.3701 113.57 66.9201C113.49 66.9801 113.41 67.0501 113.33 67.1101C114.29 65.0201 113.67 62.4201 112.22 60.6101C112.13 60.5001 111.97 60.6601 112.06 60.7701C113.03 61.9901 113.28 63.2901 113.23 64.8301C113.21 65.3401 113.1 65.7801 112.94 66.2001C113.01 64.9901 112.52 63.7001 112.05 62.5801C112.02 62.5101 111.91 62.5601 111.93 62.6301C112.29 63.5201 112.44 64.4201 112.42 65.3801C112.41 65.9001 112.28 66.3401 112.13 66.7801C111.35 64.8001 111.11 62.4401 111.66 60.4501C111.67 60.4001 111.65 60.3701 111.62 60.3501C111.64 60.2601 111.66 60.1701 111.68 60.0801C112.63 54.7601 106.01 56.7101 103.94 53.8001C103.8 53.6001 103.46 53.4801 103.28 53.7101C102.05 55.2601 100.02 55.4101 98.31 56.1401C96.88 56.7501 95.5 57.6801 94.48 58.8701C94.2 59.2001 93.98 59.5301 93.81 59.8801C93.83 59.7801 93.84 59.6801 93.87 59.5701C94.39 57.5701 95.79 55.9501 97.75 55.2601C97.91 55.2001 97.85 54.9601 97.68 55.0001C94.61 55.6901 93.08 58.5101 93.01 61.4301C92.75 59.4301 92.94 57.3601 94.56 56.1001C94.66 56.0201 94.53 55.8601 94.43 55.9301C92.94 56.8201 92.31 58.5701 92.26 60.3901C91.97 58.9801 91.93 57.4801 92.45 56.5901C92.87 55.8501 94.27 55.2001 95.03 54.7801C97.63 53.3401 100.66 52.9201 103.32 51.6201C104.25 51.1701 105.04 50.2501 106.14 50.4601C106.73 50.5701 107.9 51.8901 108.45 52.3001C111.94 54.9101 114.29 58.0501 115.13 62.4401C115.29 63.2901 115.38 64.3001 115.34 65.3101L115.32 65.3001ZM105.97 60.0301C104.61 59.6101 103.04 59.7201 101.72 60.2101C99.79 60.9301 98.29 62.5801 96.07 62.3201C96.21 62.0201 96.4 61.7201 96.65 61.4201C97.25 60.7001 98.04 60.1601 98.76 59.5701C98.9 59.4601 98.72 59.2401 98.57 59.3301C97.56 59.9101 96.06 61.1001 95.37 62.4301C95.66 60.7601 96.93 59.2801 98.6 58.5801C98.74 58.5201 98.69 58.2901 98.54 58.3401C96.33 59.0801 94.05 61.6001 94.68 63.9601C94.66 63.9201 94.64 63.9001 94.63 63.8601C94.6 63.7901 94.56 63.7601 94.51 63.7501C94.33 63.2401 94.2 62.7201 94.15 62.1701C93.96 59.9801 95.12 58.4301 96.86 57.2801C98.89 55.9301 101.33 55.6201 103.48 54.5401C105.35 56.6001 108.85 55.4401 110.64 57.5101C112.21 59.3301 110.68 62.2901 109.43 64.2801C109.98 63.1501 110.44 61.9901 110.61 60.8201C110.96 58.5101 109.53 57.4401 107.47 56.7801C107.31 56.7301 107.2 56.9801 107.36 57.0501C108.81 57.6701 110.12 58.4601 110.02 60.2401C109.98 61.0501 109.68 61.8701 109.35 62.6301C109.4 62.0601 109.4 61.5001 109.33 61.0001C109.09 59.4601 108.04 58.6501 106.75 57.9201C106.58 57.8201 106.43 58.0801 106.59 58.1901C108.29 59.2601 109.08 60.3301 108.77 62.4101C108.73 62.6701 108.68 62.9201 108.63 63.1801C108.6 61.3201 107.94 59.5901 106.16 58.5401C106.03 58.4601 105.92 58.6601 106.04 58.7401C107.88 59.9501 108.04 61.4501 107.98 63.1001C107.93 62.8901 107.89 62.6901 107.83 62.4901C107.81 61.4001 107.24 60.4201 105.99 60.0301H105.97ZM106.93 63.9801C105.63 63.6801 104.67 63.0901 103.25 63.4801C102.63 63.6501 102.12 63.9801 101.6 64.3401C100.62 65.0401 99.62 65.3501 98.51 65.6901C98.07 64.6801 97.5 63.8201 96.77 63.0501C97.86 62.9201 98.72 62.3601 99.75 61.7101C100.79 61.0601 101.83 60.5601 103.08 60.4701C104.67 60.3601 107.11 60.7601 107.17 62.8201C107.18 63.2101 107.09 63.6001 106.93 63.9601V63.9801ZM96.27 63.4601C97.04 64.0601 97.59 64.8101 97.95 65.7601C97.33 65.7101 96.73 65.6001 96.2 65.3901C96.3 65.1001 96.33 64.7701 96.35 64.5201C96.38 64.1601 96.35 63.8101 96.27 63.4701V63.4601ZM102.2 64.3801C103.75 63.5201 104.6 64.0301 106.09 64.5301C106.29 64.6001 106.42 64.6401 106.53 64.6701C106.08 65.3001 105.43 65.8101 104.76 66.0401C103.58 66.4401 102.36 66.0401 101.18 65.9001C100.57 65.8301 99.86 65.8301 99.13 65.8101C100.26 65.5301 101.09 64.9901 102.2 64.3801ZM107.37 68.0701C107.43 68.0201 107.48 67.9701 107.53 67.9101C109.05 66.4201 110.26 64.3901 111 62.4801C110.73 64.3301 110.88 66.3301 111.81 67.8901C111.8 67.9501 111.78 68.0101 111.77 68.0701C111.77 68.0901 111.77 68.1001 111.77 68.1201C110.5 68.8201 109.09 69.3001 107.44 69.5001C106.67 69.6001 105.9 69.6301 105.13 69.6101C105.93 69.2501 106.67 68.7201 107.36 68.0701H107.37ZM98.13 67.5101C99.63 68.0101 101.11 68.5701 102.62 69.0501C102.74 69.0901 102.82 68.9001 102.71 68.8501C101.51 68.3101 100.27 67.7401 99.02 67.2501C99.47 67.3201 99.91 67.4001 100.34 67.5101C102.57 68.1001 104 68.2401 106.15 67.2101C106.23 67.1701 106.17 67.0501 106.09 67.0701C105.07 67.3001 104.02 67.6701 102.96 67.6201C101.82 67.5701 100.75 67.0201 99.65 66.7901C98.86 66.6201 98.1 66.4901 97.34 66.3201C98.42 66.3601 99.58 66.2001 100.52 66.2401C103.11 66.3401 105.79 67.2301 107.32 64.4201C107.41 64.2601 107.47 64.0901 107.54 63.9201C107.55 64.2501 107.56 64.5901 107.53 64.9301C107.49 65.3901 107.31 66.6601 107.06 67.2701C105.96 68.2801 104.68 68.9701 103.12 69.4501C101.22 69.1801 99.37 68.5801 97.65 67.7001C97.44 67.5401 97.23 67.3801 97.02 67.2201C97.41 67.3201 97.81 67.4001 98.13 67.5101ZM102.38 70.0101C102.42 70.0701 102.48 70.1201 102.57 70.1201C102.69 70.1201 102.81 70.1201 102.93 70.1101C104.56 70.4101 106.23 70.4701 107.92 70.2301C110.39 69.8801 113.3 68.8701 115.1 66.9501C115.1 67.0001 115.09 67.0401 115.1 67.0901C114.75 68.6101 114 69.9301 112.61 70.4401C111.49 70.8501 110.28 71.3301 109.15 71.7301C105.98 72.8301 103.24 72.0601 100.78 70.1401C100.3 69.7601 99.82 69.3901 99.35 69.0101C100.33 69.4501 101.35 69.7801 102.39 70.0101H102.38ZM116.77 56.1401C116.07 53.9101 114.39 52.0601 112.61 50.6201C112.52 50.5401 112.38 50.6701 112.47 50.7601C114.43 52.5701 116.22 54.6301 116.39 57.4301C116.42 57.9501 116.39 58.4801 116.35 59.0001C115.77 56.4301 114.18 53.9701 112.21 52.5301C112.09 52.4401 111.94 52.6401 112.05 52.7401C113.64 54.0101 114.68 55.5901 115.19 57.5701C115.41 58.3901 115.48 59.2201 115.53 60.0401C115.29 59.4201 115.03 58.8101 114.77 58.2401C114.07 56.7401 113.19 55.2601 111.99 54.1101C110.1 52.3001 107.65 51.5001 106.17 49.2101C106.06 49.0401 105.79 48.9201 105.6 49.0601C105.01 49.4901 104.34 49.8701 103.64 50.2101C102.45 49.1701 101.16 48.6801 99.54 48.5801C96.55 48.3901 92.18 50.6001 89.58 48.3401C89.38 48.1701 89.07 48.1801 88.93 48.4201C87.69 50.5101 86.07 52.7601 85.72 55.2201C85.63 55.2001 85.54 55.2001 85.44 55.2501C84.33 55.8401 83.5 56.7601 83.14 57.8501C83.11 57.8701 83.07 57.8801 83.05 57.9201C81.42 60.6801 82.85 63.2801 83.7 66.0701C84.45 68.5301 84.21 71.2401 83.46 73.7901C83.1 71.6201 82.9 69.4801 83.16 67.2501C83.18 67.1001 82.91 67.0601 82.89 67.2101C82.42 69.8001 82.32 72.4701 83.06 75.0201C82.93 75.3901 82.78 75.7501 82.63 76.1001C82.35 74.6101 82.06 73.1401 81.97 71.6101C81.87 69.7601 81.97 67.9201 82.16 66.0801C82.17 65.9401 81.94 65.9101 81.91 66.0501C81.16 69.2301 81.01 72.9401 81.91 76.1901C81.45 74.5001 81 72.8401 80.89 71.0301C80.74 68.7101 81.1 66.5301 81.49 64.2601C81.51 64.1701 81.37 64.0901 81.33 64.1901C80.08 67.1101 79.77 70.9501 80.55 74.3001C80.01 72.9901 79.66 71.6401 79.63 70.3101C79.54 67.2501 80.59 64.3301 80.39 61.3001C80.77 60.2201 81.15 59.1301 81.48 58.0101C81.81 56.8801 82.09 55.7701 82.2 54.6001C82.38 52.4901 82.1 52.1701 83.83 50.8601C86.26 49.0201 88.82 47.6701 91.14 45.6201C94.54 42.6201 98.99 38.7501 103.67 41.7701C106.04 43.3001 107.64 45.7201 110.07 47.2001C113.41 49.2201 116.86 50.2001 117.87 54.5301C118.57 57.5301 117.81 60.5101 116.69 63.3301C117.06 60.9601 117.5 58.4101 116.79 56.1501L116.77 56.1401ZM77.15 74.6501C77.1 71.2501 77.98 68.1201 79.05 65.0001C78.72 67.6801 78.47 70.4001 79.08 72.8901C79.96 76.4601 82.68 80.0501 85.17 82.6901C88.71 86.4201 93.29 88.7601 98.18 90.0301C96.86 89.9201 95.54 89.7501 94.2 89.4401C90.02 88.4801 86.05 86.6301 82.82 83.7901C79.78 81.1101 78.06 78.0101 77.14 74.6601L77.15 74.6501ZM82.16 77.1401C82.11 76.9601 82.06 76.7701 82.01 76.5901C82.06 76.7601 82.13 76.9101 82.19 77.0801C82.19 77.1001 82.17 77.1201 82.16 77.1401ZM71.86 89.0201C73.07 86.8101 73.73 84.3701 73.84 81.9001C74.14 82.6901 74.52 83.4301 75.06 84.0601C77.15 86.5501 80.39 87.7601 83.33 88.9101C90.13 91.5701 97.81 93.7101 104.96 92.0301C103.98 92.4801 102.97 92.8701 101.92 93.1701C92.19 95.9001 80.46 94.5201 71.75 89.1801C71.79 89.1301 71.83 89.0801 71.86 89.0201ZM109.57 89.4801C109.57 89.4801 109.55 89.4801 109.54 89.4801C108.89 89.7501 108.23 89.9901 107.58 90.2001C107.55 90.2001 107.52 90.2001 107.49 90.2001C107.44 90.1801 107.38 90.1601 107.32 90.1601C99.22 89.8901 91.06 87.8301 85.43 81.6101C84.54 80.6201 83.61 79.5001 82.77 78.2901C84.23 75.6801 84.9 72.6101 85.05 69.6401C85.19 66.7401 84.07 64.1301 83.63 61.3701C85.21 63.8401 88.95 63.9501 91.38 65.1001C95.65 67.1301 98.7 70.8401 102.84 72.9601C107.47 75.3201 110.04 71.3801 114.68 71.4701C114.92 71.4701 115.23 71.2801 115.26 71.0301C115.43 69.8501 115.8 68.6901 116.1 67.5301C116.14 67.4901 116.18 67.4501 116.21 67.3801C118.3 63.0101 120.47 58.0801 118.84 53.1901C117.44 48.9901 113.53 47.7201 110.18 45.5601C111.79 46.1201 113.53 45.9701 115.32 45.3201C117.95 44.3601 118.41 44.2501 120.43 46.4101C122.46 48.5701 123.61 49.3601 122.88 52.4701C122 56.2201 122.33 60.0701 123.06 63.8201C123.97 68.4501 126.68 74.1201 125.51 78.8901C123.37 82.0201 119.85 83.8901 116.48 85.7401C115.56 86.1001 114.64 86.5001 113.72 87.0101C112.31 87.7801 110.95 88.6301 109.58 89.4701L109.57 89.4801ZM71.69 43.0301C71.69 43.0301 71.65 43.0301 71.63 43.0301C71.65 43.0301 71.67 43.0301 71.69 43.0301ZM140.4 74.5901C140.46 74.5101 140.53 74.4401 140.59 74.3601C141.73 72.9701 142.82 71.4601 143.53 69.7901C143.4 70.2201 143.27 70.6401 143.11 71.0601C142.42 72.9501 141.5 74.6901 140.38 76.3601C140.23 76.5801 140.07 76.8101 139.92 77.0401C140.05 76.3101 140.23 75.5801 140.47 74.8601C140.51 74.7501 140.47 74.6601 140.4 74.6001V74.5901ZM70.28 96.6801C75.36 98.8301 80.59 100.26 84.64 104.23C84.98 104.56 85.57 104.58 85.91 104.23C93.96 95.8801 107.1 101.45 115.35 93.8701C116.17 93.2301 116.97 92.4901 117.81 91.5801C120.35 88.8101 123.86 86.7201 127.57 86.0301C129.61 85.6501 133.03 86.5401 134.47 84.5401C135.44 83.1801 135.54 80.9901 136.44 79.5301C137.3 78.1201 138.44 76.8701 139.54 75.6101C136.65 82.4301 140.36 90.5101 134.85 96.7001C133.85 97.8201 132.65 98.4401 131.16 99.1301C123.5 102.71 115.22 104.88 107.09 107.29C104.75 107.84 102.42 108.43 100.12 109.14C97.35 109.99 94.6 111.13 91.84 112.29C91.51 109.69 90.15 107.33 88.26 105.54C88.18 105.47 88.08 105.58 88.15 105.66C89.93 107.66 90.8 109.96 91.23 112.56C90.78 112.75 90.33 112.94 89.88 113.12C89.46 110.16 88.33 107.46 86.46 105.12C86.35 104.98 86.12 105.16 86.22 105.31C87 106.52 87.68 107.78 88.19 109.13C88.38 109.64 88.55 110.16 88.7 110.69C88.76 110.91 89.26 112.68 89.27 113.01C89.23 113.05 89.2 113.09 89.19 113.16C89.19 113.18 89.19 113.2 89.19 113.21C89.18 113.27 89.19 113.34 89.2 113.4C88.82 113.56 88.44 113.71 88.05 113.87C88.05 113.8 88.03 113.72 88.02 113.65C88.02 113.61 88 113.57 87.97 113.54C87.27 109.46 85.23 105.69 82.07 102.99C81.99 102.92 81.88 103.03 81.95 103.11C84.88 106.24 86.71 109.92 87.32 114.16C86.88 114.33 86.44 114.5 86 114.67C85.35 110.02 83.38 105.94 80.28 102.36C80.17 102.23 80 102.42 80.1 102.54C83.01 106.04 84.73 110.44 85.25 114.94C84.97 115.04 84.69 115.14 84.41 115.24C83.62 112.45 83.19 109.7 81.79 107.07C80.48 104.6 78.64 102.6 76.32 101.04C76.22 100.97 76.13 101.13 76.23 101.2C78.91 103.16 80.78 106.01 81.98 109.07C82.49 110.38 82.88 111.73 83.19 113.1C83.32 113.68 83.35 114.78 83.65 115.49C83.47 115.55 83.28 115.61 83.1 115.67C83.1 115.61 83.12 115.56 83.1 115.49C81.99 109.29 78.36 103.74 73.57 99.7501C73.45 99.6501 73.27 99.8201 73.39 99.9301C78.08 104.17 80.86 109.62 82.24 115.73C82.26 115.8 82.29 115.86 82.33 115.91C82.04 116 81.74 116.08 81.44 116.17C81.69 112.09 78.82 108.06 76.46 104.97C74.96 103 73.33 101.1 71.62 99.3001C70.28 97.9001 68.61 96.6601 67.2 95.2501C68.06 95.7401 69.07 96.1801 70.27 96.6801H70.28ZM51.62 20.5101C55.11 17.9201 59.39 16.6101 63.38 14.9201C65.17 14.1601 66.97 13.3701 68.62 12.3201C69.28 11.9001 69.87 11.3601 70.52 10.9301C72.62 9.57006 74.32 9.33006 76.84 9.79006C82.84 10.8701 88.75 8.13006 94.71 7.96006C97.78 7.87006 100.68 8.80006 103.69 8.91006C106.83 9.02006 109.39 6.55006 112.66 6.51006C125.59 6.33006 136.22 19.0101 142.79 28.7001C144.38 31.0401 145.94 33.4101 147.66 35.6501C148.44 36.6701 149.25 37.6701 150.11 38.6301C150.93 39.5401 152.67 40.6501 152.98 41.8301C153.14 42.4601 152.37 44.0601 152.26 44.7201C152.1 45.7101 152.06 46.7001 152.08 47.7001C152.14 50.3101 152.7 52.9001 153.05 55.4801C153.69 60.1301 153.28 63.9201 150.98 68.0701C149.35 71.0101 147.31 73.7101 145.58 76.5901C143.46 80.1401 141.32 83.9601 139.61 87.9101C139.62 87.4301 139.63 86.9601 139.62 86.4801C139.65 86.3101 139.69 86.1301 139.73 85.9601C139.77 85.9101 139.8 85.8601 139.81 85.7801C139.81 85.7101 139.83 85.6401 139.83 85.5701C139.87 85.4201 139.9 85.2801 139.95 85.1301C140.44 83.6201 141.15 82.2001 141.91 80.8101C143.35 78.1801 144.95 75.6601 146.13 72.9001C148.41 67.5801 149.25 61.8801 148.45 56.1401C148.44 56.0501 148.28 56.0701 148.29 56.1601C149.13 62.6401 147.01 69.1001 144.04 74.7901C143.26 76.2801 142.18 77.9201 141.16 79.6501C141.38 79.0801 141.63 78.5101 141.94 77.9201C143.01 75.8201 144.24 73.8001 145.12 71.6001C146.93 67.0801 147.25 62.0601 146.39 57.3001C146.37 57.1901 146.17 57.2101 146.18 57.3301C146.89 62.9601 145.8 68.5201 143.19 73.5501C142.11 75.6201 140.46 78.1101 139.57 80.6701C139.57 80.5601 139.57 80.4401 139.58 80.3301C139.59 80.3101 139.61 80.3001 139.62 80.2701C139.95 78.0901 141.35 76.6001 142.37 74.7201C143.26 73.0901 143.94 71.3401 144.4 69.5401C145.32 65.9301 145.29 62.1901 144.44 58.5601C144.41 58.4101 144.19 58.4801 144.22 58.6201C144.64 61.1001 144.68 63.6201 144.34 66.1001C144.26 62.5201 141.46 59.2201 137.7 60.0301C137.73 57.7301 137.49 55.4301 136.95 53.1801C135.9 48.7601 133.97 44.5801 134.38 39.9401C134.41 39.6101 134.07 39.2901 133.75 39.3101C126.99 39.6001 121.73 34.2301 115.81 31.7801C111.1 29.8301 106.03 29.0201 100.95 29.4301C92.37 30.1201 82.48 34.8101 77.63 42.3401C77.14 41.5901 76.58 40.9501 75.95 40.4001C76.36 40.1001 76.73 39.6501 77.11 39.3401C77.76 38.8101 78.46 38.3501 79.24 38.0301C79.35 37.9901 79.31 37.8101 79.19 37.8501C78.4 38.1301 77.64 38.4601 76.94 38.9201C76.49 39.2201 75.91 39.6301 75.6 40.1201C75.33 39.9101 75.06 39.7201 74.77 39.5401C76.48 38.2601 78.25 37.0701 80.2 36.1801C80.33 36.1201 80.22 35.9301 80.09 35.9901C78.09 36.8701 76.15 37.8501 74.4 39.1701C74.36 39.2001 74.33 39.2401 74.32 39.2801C74.04 39.1301 73.75 39.0001 73.46 38.8801C76.01 36.8901 78.79 35.2801 81.88 34.2301C82.08 34.1601 82 33.8401 81.79 33.9001C78.48 34.9001 75.44 36.4201 72.77 38.6101C72.23 38.4401 71.68 38.3101 71.11 38.2301C73 37.0501 74.77 35.6901 76.76 34.6401C79.17 33.3701 81.71 32.4601 84.26 31.5301C84.41 31.4701 84.35 31.2501 84.19 31.2801C81.6 31.7901 79.07 32.7701 76.71 33.9301C74.45 35.0301 71.93 36.3401 70.13 38.1301C69.52 38.1001 68.91 38.1101 68.3 38.1801C70.26 36.6901 72.28 35.2801 74.48 34.0701C78.29 31.9601 82.35 30.3901 86.52 29.1601C86.71 29.1001 86.63 28.8301 86.44 28.8701C79.32 30.4601 71.9 33.8301 66.16 38.6501C65.51 38.8501 64.88 39.1201 64.27 39.4401C67.01 36.7801 70.28 34.6301 73.67 32.7301C80.28 29.0301 87.52 26.7201 95.03 25.8201C95.12 25.8101 95.13 25.6601 95.03 25.6701C87.32 26.3101 79.77 28.4901 72.94 32.1201C67.4 35.0701 60.43 39.4701 58.36 45.8301C57.72 46.3801 57.03 46.6701 56.14 47.1701C54.82 47.9101 53.83 48.5701 52.99 49.8501C50.7 53.3801 51.67 57.7201 52.55 61.5401C52.69 62.1601 52.83 62.7701 52.95 63.3801C52.89 63.2601 52.83 63.1401 52.78 63.0201C52.2 61.6901 51.66 60.3301 51.2 58.9601C51.17 58.8601 51.01 58.9001 51.04 59.0001C51.65 61.0601 52.19 63.6401 53.34 65.5701C53.44 66.3101 53.51 67.0401 53.53 67.7901C52.16 64.7301 50.82 61.7701 50.09 58.4401C50.07 58.3701 49.97 58.4001 49.98 58.4701C50.5 62.0601 51.48 65.9401 53.52 69.0101C53.51 69.3201 53.49 69.6201 53.45 69.9401C52.72 68.4801 51.94 67.0401 51.31 65.5501C50.13 62.7701 49.26 59.9201 48.91 56.9001C48.89 56.7501 48.66 56.7401 48.67 56.9001C48.92 61.7501 50.7 67.0401 53.23 71.3401C53.18 71.5801 53.13 71.8001 53.09 72.0001C52.02 70.0101 50.88 68.0401 50.03 65.9201C48.76 62.7601 46.84 58.5201 47.51 55.0901C47.54 54.9201 47.28 54.8401 47.24 55.0201C46.46 58.4401 48.14 62.5901 49.31 65.7801C50.26 68.3701 51.37 71.3101 52.93 73.7501C52.93 73.8101 52.94 73.8701 52.95 73.9201C50.79 71.2401 48.91 68.4301 47.59 65.0201C45.6 59.9301 44.85 54.3801 45.67 48.9701C45.7 48.7501 45.37 48.6501 45.33 48.8801C44.37 54.4801 44.81 60.2001 46.79 65.5401C48.44 69.9901 51.28 74.8401 55.21 77.7801C56.42 79.2901 57.81 80.7701 58.86 82.2201C60.78 84.8701 62.3 87.2201 63.33 90.3501C63.74 91.6001 64.23 92.5401 64.83 93.3001C64.79 93.3901 64.79 93.5001 64.86 93.6201C66.77 96.8001 70.4 98.8301 72.76 101.72C75.61 105.21 79.57 111.14 79.77 115.91C76.91 112.86 73.43 110.35 69.76 108.37C67.92 107.38 65.05 106.52 63.5 105.07C62.08 103.75 62.04 101.49 61.38 99.6401C59.95 95.6601 57.85 92.1001 55 88.9801C51.31 84.9301 47.22 81.5101 44.7 76.5301C40.14 67.5501 39.3 55.8801 39.84 45.9501C40 42.9701 40.47 39.9601 41.92 37.3001C42.46 36.3101 43.12 35.3801 43.9 34.5601C44.5 33.9201 45.57 33.5101 45.94 32.7601C46.79 31.0701 46.41 28.7201 47.19 26.8301C48.2 24.3701 49.7 22.3101 51.62 20.5301V20.5101ZM71.2 110.12C68.98 109.33 66.77 108.59 64.61 107.58C64.53 107.54 64.45 107.5 64.37 107.46C66.74 108.04 68.95 108.78 71.2 110.12ZM4.38004 79.8901C3.78004 79.1201 3.30004 77.1401 2.96004 76.2101C1.92004 73.4101 0.780038 70.4701 0.830038 67.4301C1.05004 55.7501 14.3 51.0801 23.09 47.2901C27.29 45.4801 31.19 42.9501 34.53 39.8301C37.62 36.9401 40.14 32.2701 44.25 30.8401C44.06 31.2401 43.84 31.6301 43.53 31.9901C42.42 33.2901 41.28 34.2401 40.44 35.7801C39.11 37.5001 37.86 39.2601 36.29 40.8101C34.12 42.9601 31.67 44.7701 29.12 46.4401C24.58 49.4101 19.69 52.0001 15.93 55.9701C15.82 56.0901 15.99 56.2601 16.11 56.1501C20.39 51.9301 25.77 49.4501 30.76 46.2401C33.4 44.5401 36.24 42.3901 38.57 39.8801C36.54 42.9001 33.93 45.2201 30.82 47.2901C27.36 49.6001 23.68 51.6101 20.56 54.3901C20.43 54.5001 20.62 54.6901 20.74 54.5701C25.94 50.0201 34.36 47.5301 38.49 41.6701C38.47 41.7701 38.46 41.8701 38.44 41.9701C36.6 44.6901 34.8 47.0501 31.95 48.9701C29.33 50.7401 26.5 52.2001 24.42 54.6401C24.33 54.7501 24.48 54.9101 24.58 54.8001C27.28 52.0101 30.93 50.6801 33.99 48.3901C35.5 47.2601 37.01 45.8301 38.17 44.2001C38.15 44.4101 38.14 44.6201 38.13 44.8301C37.73 45.5301 37.31 46.2101 36.74 46.8501C35.77 47.9601 34.61 48.9201 33.43 49.7901C31.35 51.3201 29.16 52.6801 27.31 54.4901C27.25 54.5501 27.33 54.6701 27.41 54.6101C29.94 52.6801 32.81 51.2501 35.3 49.2701C36.24 48.5201 37.26 47.6001 38.07 46.5601C38.07 46.6101 38.07 46.6701 38.07 46.7201C36.21 49.8501 33.05 52.3101 30.18 54.3801C30.07 54.4601 30.17 54.6401 30.29 54.5701C32.35 53.2701 34.37 51.9701 36.11 50.2501C36.68 49.6901 37.45 48.9501 38.08 48.1401C38.08 48.4401 38.08 48.7401 38.1 49.0401C38.06 49.1301 38.02 49.2101 37.97 49.3001C37.59 49.9601 37.05 50.5201 36.52 51.0501C35.45 52.1201 34.37 53.2701 33.1 54.1101C32.97 54.1901 33.09 54.3901 33.22 54.3201C34.7 53.4601 36.01 52.4101 37.23 51.2001C37.52 50.9101 37.86 50.5701 38.16 50.2001C38.35 53.4501 38.78 56.6701 39.09 59.6201C39.6 64.4201 40.45 69.3001 42.16 73.8301C41.39 73.1801 40.48 72.6501 39.66 72.2601C39.47 72.1701 39.31 72.4501 39.5 72.5401C40.26 72.9301 40.96 73.3901 41.59 73.9601C41.99 74.3201 42.33 74.7401 42.69 75.1401C42.73 75.2201 42.76 75.3101 42.8 75.3901C41.36 74.2601 39.61 73.4601 37.94 72.8401C37.76 72.7801 37.69 73.0501 37.86 73.1201C39.83 73.8901 41.44 75.0201 43.14 76.1701C43.24 76.3901 43.35 76.6001 43.45 76.8101C41.26 75.0801 38.63 73.8801 35.9 73.3901C35.69 73.3501 35.6 73.6501 35.81 73.7101C38.98 74.5701 41.64 75.9601 44.08 78.0301C44.18 78.2101 44.28 78.3901 44.38 78.5701C43.34 77.7401 42.18 77.0301 41.18 76.5101C38.97 75.3601 36.65 74.6201 34.18 74.3401C34 74.3201 33.96 74.6301 34.14 74.6601C36.61 75.0701 39 75.8401 41.15 77.1401C42.17 77.7501 43.03 78.5001 43.87 79.2701C40.71 77.6101 37.15 76.5001 34.06 75.3501C33.93 75.3001 33.83 75.5301 33.96 75.5801C36.99 76.8901 40.15 78.0801 43.08 79.6101C44.51 80.3501 45.71 81.2301 46.84 82.2101C47.12 82.5701 47.41 82.9201 47.71 83.2801C42.3 79.7001 36.09 77.0501 30 75.8701C21.73 74.2601 11.69 74.6401 5.89004 81.5601C5.59004 81.3801 5.15004 80.9001 4.37004 79.9001L4.38004 79.8901ZM7.60004 80.7701C7.60004 80.7701 7.59004 80.7701 7.58004 80.7701C10.31 78.2401 13.26 76.5501 17.13 75.7601C21.87 74.7901 26.92 75.4001 31.54 76.6901C35.83 77.8801 39.91 79.7301 43.75 81.9701C46.37 83.5001 48.77 85.2901 51.19 87.0801C56.14 92.2801 61.19 97.4001 60.64 105.33C59.52 104.6 58.42 103.82 57.33 103.03C57.22 102.95 57.08 103.13 57.18 103.22C58.23 104.12 59.39 105.01 60.62 105.86C60.68 106.29 61.07 106.74 61.48 106.82C61.79 106.88 62.09 106.95 62.39 107.01C65.68 109.04 69.36 110.65 72.9 111.24C74.01 112.03 75.06 112.88 76.07 113.79C72.57 112.85 69.17 111.9 65.85 110.35C62.13 108.61 58.67 106.42 55.58 103.72C55.47 103.62 55.3 103.79 55.41 103.89C61.35 109.22 68.97 113.8 77.06 114.71C77.63 115.26 78.2 115.82 78.75 116.39C76.64 115.65 74.27 115.42 72.13 114.76C69.74 114.03 67.41 113.12 65.16 112.04C60.72 109.91 56.52 107.15 52.95 103.74C52.87 103.67 52.75 103.78 52.83 103.86C56.49 107.42 60.49 110.48 65.08 112.76C67.28 113.85 69.57 114.77 71.92 115.5C73.41 115.96 75.11 116.52 76.78 116.78C66.23 116.12 57.02 110.02 49.53 102.86C49.49 102.82 49.43 102.88 49.47 102.92C56.48 109.81 64.71 116.16 74.59 117.31C72.88 117.37 71.15 117.26 69.38 116.91C64.19 115.88 59.54 113.21 55.26 110.19C51.63 107.62 48.62 104.41 44.13 103.53C43.62 103.43 43.08 103.97 43.41 104.47C44.31 105.88 44.97 107.43 45.56 109C43.3 106.75 40.55 104.93 37.62 103.85C33.5 99.6601 29.54 95.2601 25.46 91.0401C22.03 87.4901 17.6 82.8301 12.63 81.4401C11.17 80.5701 9.59004 80.6701 7.59004 80.7701H7.60004ZM12.05 97.6601C17.85 96.1701 17.56 87.5501 14.58 83.3301C16.47 84.3401 18.34 85.3301 20.1 86.7501C22.88 88.9901 25.31 91.4601 27.51 94.2701C30.06 97.5301 32.73 100.61 35.82 103.29C35.65 103.25 35.49 103.21 35.32 103.17C30.62 99.8701 26.39 96.1601 22.87 91.5701C22.75 91.4201 22.49 91.5701 22.61 91.7201C25.68 95.9401 29.36 99.8301 33.63 102.88C33.14 102.82 32.66 102.79 32.17 102.78C30.64 101.62 29.05 100.54 27.62 99.2501C25.85 97.6501 24.22 95.9201 22.71 94.0701C22.62 93.9601 22.42 94.1101 22.51 94.2201C24.81 97.3201 27.7 100.6 31.04 102.8C30.46 102.83 29.89 102.9 29.31 103.01C28.27 102.04 27.09 101.17 26.08 100.2C24.75 98.9301 23.47 97.5901 22.22 96.2301C22.06 96.0601 21.82 96.3101 21.97 96.4801C23.22 97.9701 24.55 99.3901 25.95 100.73C26.78 101.52 27.63 102.41 28.56 103.16C28.1 103.27 27.64 103.41 27.19 103.58C26.51 102.98 25.74 102.43 25.09 101.84C24.09 100.94 23.14 100 22.19 99.0501C22.05 98.9101 21.85 99.1201 21.98 99.2601C22.92 100.31 23.92 101.31 24.96 102.27C25.49 102.76 26.05 103.32 26.65 103.8C26.28 103.95 25.91 104.13 25.55 104.32C25.21 104.08 24.87 103.83 24.57 103.57C23.8 102.91 23.06 102.22 22.36 101.49C22.2 101.33 21.97 101.57 22.12 101.73C22.86 102.57 23.64 103.37 24.48 104.11C24.66 104.27 24.84 104.44 25.03 104.61C24.71 104.79 24.4 104.99 24.09 105.21C23.95 105.13 23.81 105.04 23.68 104.94C23.16 104.56 22.69 104.13 22.24 103.66C22.08 103.49 21.83 103.74 21.98 103.92C22.41 104.43 22.87 104.89 23.39 105.31C23.48 105.38 23.56 105.45 23.65 105.53C23.3 105.79 22.95 106.07 22.61 106.38C22.1 106.84 21.63 107.34 21.21 107.86C16.29 106.72 11.98 102.87 12.04 97.6701L12.05 97.6601ZM21.3 112.23C23.02 107.45 28.14 104.5 33.09 104.57C38.24 104.64 42.81 107.44 46.31 111.02C47.15 113.33 48.03 115.62 49.54 117.58C51.9 120.65 55.56 122.22 59.24 123.15C74.8 131.01 92 136.09 109.1 139.25C117.41 140.78 125.82 141.85 134.25 142.41C136.15 142.54 138.08 142.54 139.98 142.77C144.15 143.27 146.15 144.87 146.03 149.37C145.94 152.42 145.85 154.91 146.69 157.67C141.74 156.26 137.1 156.51 131.94 157.39C125.88 158.42 119.98 157.72 114.41 155C111.81 153.73 109.39 152.08 107.31 150.06C105.41 148.22 104.28 145.89 102.55 143.94C101.42 142.67 100.72 142.63 99 142.69C96.13 142.79 93.23 143.45 90.35 143.62C78.01 144.34 65.26 142.64 53.7 138.19C44.72 134.74 33.99 129.24 24.43 133.4C25.3 126.17 18.63 119.66 21.3 112.24V112.23ZM117.7 158.43C115.12 157.59 112.66 156.74 110.26 155.31C107.49 153.66 104.84 151.72 102.41 149.6C102.31 149.51 102.15 149.66 102.26 149.75C106.18 153.25 110.78 157.59 116.12 158.98C115.87 159.08 115.63 159.18 115.38 159.29C113.36 158.55 111.42 157.81 109.56 156.67C107.42 155.37 105.46 153.84 103.53 152.24C103.42 152.15 103.26 152.3 103.37 152.4C106.44 155.31 110.22 158.6 114.48 159.7C114.11 159.89 113.75 160.08 113.39 160.29C111.97 159.74 110.54 159.28 109.2 158.5C107.49 157.51 105.97 156.27 104.6 154.86C104.44 154.7 104.22 154.94 104.36 155.1C106.4 157.56 109.44 159.94 112.68 160.72C112.3 160.96 111.92 161.21 111.54 161.47C109.19 160.33 106.99 159.38 105.08 157.45C104.94 157.31 104.72 157.52 104.86 157.67C106.49 159.43 108.63 161.19 111.02 161.83C110.65 162.1 110.29 162.37 109.93 162.66C109.29 162.24 108.46 162.09 107.77 161.73C107.01 161.33 106.31 160.83 105.71 160.21C105.61 160.11 105.47 160.26 105.55 160.37C106.12 161.08 106.78 161.62 107.58 162.06C108.18 162.4 108.94 162.8 109.65 162.89C109.33 163.15 109.01 163.41 108.7 163.68C107.8 163.17 106.86 162.82 106.02 162.2C105.89 162.11 105.78 162.31 105.9 162.41C106.64 162.98 107.5 163.64 108.41 163.94C106.78 165.36 105.24 166.9 103.76 168.43C103.58 168.62 103.4 168.8 103.21 168.97C101.41 162.78 94.74 157.96 89.87 154.4C84.1 150.17 77.76 146.56 71.09 143.9C78.11 145.07 85.26 145.43 92.35 144.95C94.91 144.78 98.65 143.63 100.98 145.17C101.63 145.6 102.37 147.38 102.92 148.02C103.67 148.9 104.52 149.66 105.38 150.44C108.5 153.26 112 155.56 115.96 157.03C117.13 157.46 118.3 157.78 119.48 158.02C118.87 158.13 118.28 158.28 117.7 158.45V158.43ZM52.33 167.38C48.4 165.2 44.92 162.08 42.45 158.31C40.66 155.58 39.48 153.06 40.26 149.82C40.64 148.26 41.68 146.76 41.55 145.18C41.34 142.67 38.33 139.53 36.62 137.78C35.03 136.15 33.08 134.7 30.96 133.76C31.79 133.68 32.61 133.65 33.43 133.66C38.6 136.79 43.91 140.92 44.02 147.5C44.02 147.72 44.37 147.72 44.37 147.5C44.34 141.2 39.82 136.81 34.82 133.71C34.95 133.71 35.08 133.73 35.22 133.74C37.18 135.15 39.45 136.05 41.32 137.66C43.43 139.48 45.08 141.81 45.63 144.56C45.66 144.71 45.89 144.65 45.86 144.5C45.4 141.83 44.08 139.56 42.13 137.69C40.68 136.3 38.82 134.86 36.89 133.92C37.01 133.94 37.13 133.95 37.25 133.97C37.28 134.03 37.33 134.09 37.41 134.12C41.4 135.6 44.83 137.95 46.88 141.78C46.95 141.92 47.16 141.8 47.09 141.66C45.52 138.65 43.11 136 40.06 134.52C41.03 134.74 42 135 42.97 135.29C45.35 136.91 47.27 138.96 48.54 141.57C48.62 141.73 48.84 141.59 48.77 141.44C47.78 139.26 46.36 137.31 44.54 135.78C49.46 137.38 54.33 139.56 59.17 141.06C61.25 141.71 63.36 142.27 65.49 142.77C72.32 146.37 79.59 149.1 86.24 153.04C89.72 155.1 93.23 157.43 96.01 160.38C98.79 163.32 100.24 166.63 101.7 170.26C101.42 170.46 101.13 170.65 100.84 170.83C94.87 167.55 86.65 169.12 80.22 169.89C70.4 171.07 61.4 172.41 52.35 167.39L52.33 167.38ZM79.54 176.06C76.65 174.99 73.78 173.89 70.87 172.87C70.45 172.72 70.01 172.55 69.58 172.38C71.73 172.34 73.91 172.17 76.09 171.91C83.53 171.03 91.77 169.55 99.14 171.65C98.75 171.8 98.34 171.94 97.92 172.05C96.38 172.45 94.93 173.17 93.61 174.06C90.96 175.86 89.45 178.67 88.75 181.71C88.73 181.76 88.71 181.8 88.69 181.85C87.23 178.39 82.97 177.33 79.54 176.06ZM177.82 109.95C177.56 115.86 174.52 119.79 170.98 124.18C166.96 129.16 167.08 136.19 173.06 139.15C171.65 142.11 170.63 145.32 170.91 148.6C170.4 151.15 170.35 153.86 169.52 156.35C167.82 161.44 164.36 165.48 159.16 167.16C154.82 168.57 150.14 168.22 145.71 169.17C142.31 169.89 139.36 171.39 136.72 173.57C129.67 167.81 118.77 171.5 111.32 174.34C108.59 175.38 105.81 176.34 102.85 176.36C100.27 176.38 97.64 175.47 95.06 175.88C93.68 176.1 92.52 176.72 91.55 177.57C92.99 174.98 95.06 172.97 98.54 172.71C101.3 172.5 103.08 172.54 105.04 170.38C107.45 167.73 108.86 164.6 111.92 162.51C114.17 160.97 116.57 160.13 119.06 159.42C119.08 159.42 119.1 159.42 119.12 159.42C119.2 159.42 119.26 159.39 119.3 159.34C120.38 159.03 121.48 158.74 122.59 158.43C130.94 159.17 139.44 156.73 147.74 159.65C148.47 159.91 148.88 159.06 148.63 158.49C147.45 155.75 147.02 153.04 147.23 150.07C147.3 149.11 147.44 148.13 147.38 147.16C152.71 141.87 160.68 141.58 167.74 141.04C168.14 141.01 168.29 140.37 167.84 140.29C163.14 139.38 158.16 140.32 153.66 141.81C152.27 142.27 150.3 142.79 148.7 143.65C148.76 143.56 148.81 143.47 148.87 143.38C150.7 141.79 152.79 140.81 155.16 140.03C158.31 138.99 161.57 138.14 164.9 138.79C165.07 138.82 165.14 138.58 164.97 138.53C161.59 137.65 158.23 138.28 154.96 139.31C153.38 139.81 151.74 140.41 150.28 141.26C151.49 140.22 152.74 139.26 154.31 138.53C157.1 137.23 160.04 136.75 163.09 136.74C163.23 136.74 163.27 136.51 163.12 136.49C160.11 136.08 157.02 136.58 154.23 137.76C153.15 138.22 151.99 138.82 150.9 139.54C151.73 138.67 152.6 137.85 153.72 137.16C155.89 135.84 158.32 135.11 160.83 134.82C161.01 134.8 161.03 134.53 160.83 134.52C158.18 134.47 155.63 135.16 153.33 136.51C152.77 136.84 152.18 137.23 151.6 137.66C151.73 137.28 151.86 136.91 151.98 136.52C152.5 136.02 153.07 135.55 153.73 135.14C155.52 134.05 157.47 133.51 159.53 133.25C159.66 133.23 159.67 133.05 159.53 133.04C157.21 132.86 154.47 133.64 152.35 135.11C152.43 134.79 152.5 134.47 152.56 134.15C152.98 133.68 153.43 133.25 154.01 132.88C155.4 132 156.96 131.68 158.59 131.72C158.75 131.72 158.79 131.47 158.63 131.43C156.84 131.04 154.51 131.55 152.84 132.75C152.95 132.09 153.03 131.41 153.1 130.73C153.63 125.45 153.64 120.48 154.72 115.48C154.77 115.43 154.81 115.37 154.84 115.28C155.72 112.43 159.21 111.27 161.67 110.11C163.93 109.05 166.22 107.99 168.17 106.4C171.08 104.02 173.81 100.26 174.35 96.3901C176.65 100.6 178 105.04 177.78 109.92L177.82 109.95Z" fill="#C51D31" fill-opacity="0.53"/>
<path d="M154 28.4899C154 28.4899 154.05 28.4199 154 28.4199C153.95 28.4199 153.95 28.4899 154 28.4899Z" fill="#CE9198"/>
<path d="M97.0801 25.5102C97.0801 25.5102 97.1301 25.4302 97.0801 25.4302C96.8901 25.4302 96.7101 25.4302 96.5201 25.4402C96.4901 25.4402 96.4901 25.4902 96.5201 25.4902C96.7101 25.4902 96.8901 25.4902 97.0801 25.5002V25.5102Z" fill="#CE9198"/>
<path d="M48.63 137.89C47.91 137.26 46.96 136.48 46 136.3C45.82 136.27 45.74 136.48 45.88 136.59C46.69 137.22 47.66 137.58 48.46 138.26C49.25 138.94 49.92 139.71 50.47 140.6C50.57 140.76 50.82 140.61 50.72 140.45C50.15 139.5 49.47 138.61 48.63 137.89Z" fill="#CE9198"/>
</g>
<defs>
<clipPath id="clip0_11305_12656">
<rect width="186.31" height="184.11" fill="white"/>
</clipPath>
</defs>
</svg>
